<?xml version="1.0" encoding="UTF-8"?>
<svg width="88px" height="50px" viewBox="0 0 88 50" version="1.1" xmlns="http://www.w3.org/2000/svg" xmlns:xlink="http://www.w3.org/1999/xlink">
    <title>云效</title>
    <defs>
        <linearGradient x1="-0.025913242%" y1="49.9246696%" x2="100.02911%" y2="49.9246696%" id="linearGradient-1">
            <stop stop-color="#1F99EC" stop-opacity="0.2" offset="0%"></stop>
            <stop stop-color="#006AD4" stop-opacity="0.5" offset="100%"></stop>
        </linearGradient>
        <linearGradient x1="-0.025913242%" y1="50.0347253%" x2="99.5289438%" y2="50.0347253%" id="linearGradient-2">
            <stop stop-color="#006AD4" stop-opacity="0.2" offset="0%"></stop>
            <stop stop-color="#1B9AEE" offset="100%"></stop>
        </linearGradient>
    </defs>
    <g id="页面-1" stroke="none" stroke-width="1" fill="none" fill-rule="evenodd">
        <g id="云效" transform="translate(0.129986, 0.010478)" fill-rule="nonzero">
            <path d="M43.8700142,49.9895224 C19.7700142,49.9895224 0.470014185,32.2895224 0.0700141848,9.68952244 L19.2700142,9.28952244 C19.5700142,21.1895224 30.0700142,30.7895224 43.8700142,30.7895224 C58.7700142,30.7895224 67.5700142,22.9895224 68.4700142,7.28952244 L68.4700142,6.18952244 C68.4700142,5.28952244 69.1700142,4.58952244 70.0700142,4.58952244 L86.1700142,4.58952244 C86.9700142,4.58952244 87.6700142,5.28952244 87.6700142,6.08952244 C87.6700142,36.1895224 69.9700142,49.9895224 43.8700142,49.9895224 Z" id="路径" fill="url(#linearGradient-1)"></path>
            <path d="M86.0700142,4.58952244 C86.9700142,4.58952244 87.6700142,5.28952244 87.6700142,6.18952244 L87.6700142,6.38952244 C87.6700142,6.48952244 87.6700142,6.58952244 87.6700142,6.58952244 L87.6700142,6.38952244 L87.6700142,7.18952244 C87.3700142,36.5895224 69.7700142,49.9895224 43.8700142,49.9895224 C19.7700142,49.9895224 0.470014185,32.2895224 0.0700141848,9.68952244 C0.570014185,28.0895224 15.6700142,42.7895224 34.3700142,42.7895224 C53.2700142,42.7895224 68.6700142,27.4895224 68.6700142,8.68952244 C68.6700142,7.78952244 68.6700142,6.78952244 68.5700142,5.88952244 C68.6700142,5.08952244 69.3700142,4.48952244 70.1700142,4.48952244 L86.0700142,4.48952244 L86.0700142,4.58952244 Z" id="路径" fill="url(#linearGradient-2)"></path>
            <circle id="椭圆形" fill="#1B9AEE" transform="translate(9.621902, 9.621902) rotate(-89.869281) translate(-9.621902, -9.621902) " cx="9.62190217" cy="9.62190217" r="9.60002498"></circle>
        </g>
    </g>
</svg>